<svg width="41" height="33" viewBox="0 0 41 33" fill="none" xmlns="http://www.w3.org/2000/svg">
<path d="M18.0816 31.7492L17.8814 31.5785L3.85176 19.5031C1.39336 17.3879 0 14.4191 0 11.3094V11.0644C0 5.83944 4.00391 1.35663 9.54531 0.376944C12.7004 -0.187118 15.9275 0.488272 18.498 2.16562C19.2188 2.64062 19.8914 3.18983 20.5 3.82069C20.8363 3.46444 21.1967 3.13788 21.5811 2.83358C21.8773 2.59608 22.1816 2.37343 22.502 2.16562C25.0725 0.488272 28.2996 -0.187118 31.4547 0.369522C36.9961 1.34921 41 5.83944 41 11.0644V11.3094C41 14.4191 39.6066 17.3879 37.1482 19.5031L23.1186 31.5785L22.9184 31.7492C22.2617 32.3133 21.3969 32.6324 20.5 32.6324C19.6031 32.6324 18.7383 32.3207 18.0816 31.7492ZM19.1467 7.76171C19.1146 7.73944 19.0906 7.70976 19.0666 7.68007L17.6412 6.19569L17.6332 6.18827C15.7834 4.26601 12.9887 3.39023 10.266 3.87265C6.53437 4.53319 3.84375 7.54647 3.84375 11.0644V11.3094C3.84375 13.4246 4.79668 15.4508 6.47031 16.8906L20.5 28.966L34.5297 16.8906C36.2033 15.4508 37.1562 13.4246 37.1562 11.3094V11.0644C37.1562 7.5539 34.4656 4.53319 30.742 3.87265C28.0193 3.39023 25.2166 4.27343 23.3748 6.18827C23.3748 6.18827 23.3748 6.18827 23.3668 6.19569C23.3588 6.20312 23.3668 6.19569 23.3588 6.20312L21.9334 7.68749C21.9094 7.71718 21.8773 7.73945 21.8533 7.76913C21.493 8.10312 21.0045 8.28866 20.5 8.28866C19.9955 8.28866 19.507 8.10312 19.1467 7.76913V7.76171Z" fill="black"/>
</svg>
