<svg width="32" height="35" viewBox="0 0 32 35" fill="none" xmlns="http://www.w3.org/2000/svg">
<path d="M22 6.5625H26C27.1063 6.5625 28 7.54004 28 8.75V26.25C28 27.46 27.1063 28.4375 26 28.4375H22C20.8937 28.4375 20 29.415 20 30.625C20 31.835 20.8937 32.8125 22 32.8125H26C29.3125 32.8125 32 29.873 32 26.25V8.75C32 5.12695 29.3125 2.1875 26 2.1875H22C20.8937 2.1875 20 3.16504 20 4.375C20 5.58496 20.8937 6.5625 22 6.5625ZM21.4125 19.0449C22.1938 18.1904 22.1938 16.8027 21.4125 15.9482L13.4125 7.19824C12.6313 6.34375 11.3625 6.34375 10.5813 7.19824C9.8 8.05273 9.8 9.44043 10.5813 10.2949L15.1687 15.3125H2C0.89375 15.3125 0 16.29 0 17.5C0 18.71 0.89375 19.6875 2 19.6875H15.1687L10.5813 24.7051C9.8 25.5596 9.8 26.9473 10.5813 27.8018C11.3625 28.6562 12.6313 28.6562 13.4125 27.8018L21.4125 19.0518V19.0449Z" fill="#C16F34"/>
</svg>
